<svg width="20" height="20" viewBox="0 0 20 20" fill="none" xmlns="http://www.w3.org/2000/svg">
<g clip-path="url(#clip0_29_285)">
<path d="M10 12.5C11.3807 12.5 12.5 11.3807 12.5 9.99999C12.5 8.61928 11.3807 7.49999 10 7.49999C8.61931 7.49999 7.50002 8.61928 7.50002 9.99999C7.50002 11.3807 8.61931 12.5 10 12.5Z" stroke="#414350" stroke-width="1.5" stroke-linecap="round" stroke-linejoin="round"/>
<path d="M15.6061 12.2727C15.5052 12.5012 15.4752 12.7547 15.5197 13.0004C15.5643 13.2462 15.6814 13.473 15.8561 13.6515L15.9015 13.697C16.0424 13.8377 16.1542 14.0048 16.2304 14.1887C16.3067 14.3727 16.3459 14.5698 16.3459 14.7689C16.3459 14.968 16.3067 15.1652 16.2304 15.3491C16.1542 15.5331 16.0424 15.7002 15.9015 15.8409C15.7608 15.9818 15.5937 16.0935 15.4098 16.1698C15.2258 16.246 15.0287 16.2853 14.8296 16.2853C14.6305 16.2853 14.4333 16.246 14.2494 16.1698C14.0654 16.0935 13.8983 15.9818 13.7576 15.8409L13.7121 15.7954C13.5336 15.6208 13.3068 15.5036 13.0611 15.4591C12.8153 15.4145 12.5619 15.4446 12.3334 15.5454C12.1093 15.6415 11.9182 15.8009 11.7836 16.0042C11.649 16.2074 11.5768 16.4456 11.5758 16.6894V16.8182C11.5758 17.22 11.4161 17.6054 11.132 17.8895C10.8479 18.1737 10.4625 18.3333 10.0606 18.3333C9.65878 18.3333 9.2734 18.1737 8.98925 17.8895C8.70511 17.6054 8.54548 17.22 8.54548 16.8182V16.75C8.53961 16.4992 8.45844 16.256 8.31253 16.052C8.16661 15.848 7.9627 15.6926 7.72729 15.6061C7.4988 15.5052 7.24533 15.4751 6.99957 15.5197C6.75382 15.5642 6.52705 15.6814 6.34851 15.8561L6.30305 15.9015C6.16233 16.0424 5.99523 16.1541 5.81129 16.2304C5.62736 16.3066 5.4302 16.3459 5.23108 16.3459C5.03197 16.3459 4.83481 16.3066 4.65087 16.2304C4.46693 16.1541 4.29983 16.0424 4.15911 15.9015C4.01824 15.7608 3.90648 15.5937 3.83023 15.4097C3.75398 15.2258 3.71474 15.0287 3.71474 14.8295C3.71474 14.6304 3.75398 14.4333 3.83023 14.2493C3.90648 14.0654 4.01824 13.8983 4.15911 13.7576L4.20457 13.7121C4.37922 13.5336 4.49637 13.3068 4.54093 13.061C4.58549 12.8153 4.55541 12.5618 4.45457 12.3333C4.35853 12.1093 4.19908 11.9182 3.99583 11.7836C3.79258 11.649 3.5544 11.5767 3.31063 11.5757H3.18184C2.78 11.5757 2.39461 11.4161 2.11046 11.132C1.82632 10.8478 1.66669 10.4624 1.66669 10.0606C1.66669 9.65875 1.82632 9.27337 2.11046 8.98922C2.39461 8.70508 2.78 8.54544 3.18184 8.54544H3.25002C3.50077 8.53958 3.74396 8.45841 3.94797 8.3125C4.15199 8.16658 4.30738 7.96267 4.39396 7.72726C4.4948 7.49877 4.52489 7.2453 4.48033 6.99954C4.43577 6.75379 4.31861 6.52702 4.14396 6.34847L4.09851 6.30302C3.95763 6.1623 3.84588 5.9952 3.76963 5.81126C3.69338 5.62733 3.65413 5.43016 3.65413 5.23105C3.65413 5.03194 3.69338 4.83477 3.76963 4.65084C3.84588 4.4669 3.95763 4.2998 4.09851 4.15908C4.23922 4.01821 4.40633 3.90645 4.59026 3.8302C4.7742 3.75395 4.97136 3.71471 5.17048 3.71471C5.36959 3.71471 5.56675 3.75395 5.75069 3.8302C5.93462 3.90645 6.10173 4.01821 6.24244 4.15908L6.2879 4.20454C6.46644 4.37918 6.69321 4.49634 6.93897 4.5409C7.18472 4.58546 7.43819 4.55538 7.66669 4.45454H7.72729C7.95136 4.3585 8.14246 4.19905 8.27706 3.9958C8.41166 3.79255 8.4839 3.55437 8.48487 3.3106V3.18181C8.48487 2.77996 8.6445 2.39458 8.92865 2.11043C9.21279 1.82629 9.59818 1.66666 10 1.66666C10.4019 1.66666 10.7872 1.82629 11.0714 2.11043C11.3555 2.39458 11.5152 2.77996 11.5152 3.18181V3.24999C11.5161 3.49377 11.5884 3.73194 11.723 3.93519C11.8576 4.13844 12.0487 4.2979 12.2727 4.39393C12.5012 4.49477 12.7547 4.52486 13.0005 4.4803C13.2462 4.43574 13.473 4.31858 13.6515 4.14393L13.697 4.09847C13.8377 3.9576 14.0048 3.84585 14.1887 3.7696C14.3727 3.69335 14.5698 3.6541 14.769 3.6541C14.9681 3.6541 15.1652 3.69335 15.3492 3.7696C15.5331 3.84585 15.7002 3.9576 15.8409 4.09847C15.9818 4.23919 16.0936 4.4063 16.1698 4.59023C16.2461 4.77417 16.2853 4.97133 16.2853 5.17044C16.2853 5.36956 16.2461 5.56672 16.1698 5.75066C16.0936 5.93459 15.9818 6.1017 15.8409 6.24241L15.7955 6.28787C15.6208 6.46641 15.5037 6.69318 15.4591 6.93894C15.4145 7.18469 15.4446 7.43816 15.5455 7.66666V7.72726C15.6415 7.95133 15.801 8.14243 16.0042 8.27703C16.2075 8.41163 16.4456 8.48387 16.6894 8.48484H16.8182C17.22 8.48484 17.6054 8.64447 17.8896 8.92862C18.1737 9.21276 18.3334 9.59815 18.3334 9.99999C18.3334 10.4018 18.1737 10.7872 17.8896 11.0714C17.6054 11.3555 17.22 11.5151 16.8182 11.5151H16.75C16.5062 11.5161 16.2681 11.5883 16.0648 11.723C15.8616 11.8576 15.7021 12.0487 15.6061 12.2727Z" stroke="#414350" stroke-width="1.5" stroke-linecap="round" stroke-linejoin="round"/>
</g>
<defs>
<clipPath id="clip0_29_285">
<rect width="20" height="20" fill="white"/>
</clipPath>
</defs>
</svg>
