<svg width="20" height="20" viewBox="0 0 20 20" fill="none" xmlns="http://www.w3.org/2000/svg">
<g clip-path="url(#clip0_29_289)">
<path d="M7.57499 7.49998C7.77091 6.94304 8.15762 6.4734 8.66662 6.17426C9.17562 5.87511 9.77407 5.76576 10.356 5.86557C10.9379 5.96539 11.4657 6.26792 11.8459 6.71959C12.2261 7.17126 12.4342 7.74292 12.4333 8.33331C12.4333 9.99998 9.93333 10.8333 9.93333 10.8333M10 14.1667H10.0084M1.66669 7.10227V12.8977C1.66669 13.1015 1.66669 13.2034 1.68971 13.2993C1.71013 13.3844 1.7438 13.4657 1.78949 13.5402C1.84102 13.6243 1.91308 13.6964 2.05721 13.8405L6.1595 17.9428C6.30362 18.0869 6.37569 18.159 6.45978 18.2105C6.53434 18.2562 6.61563 18.2899 6.70066 18.3103C6.79657 18.3333 6.89848 18.3333 7.10231 18.3333H12.8977C13.1016 18.3333 13.2035 18.3333 13.2994 18.3103C13.3844 18.2899 13.4657 18.2562 13.5403 18.2105C13.6244 18.159 13.6964 18.0869 13.8405 17.9428L17.9428 13.8405C18.087 13.6964 18.159 13.6243 18.2106 13.5402C18.2562 13.4657 18.2899 13.3844 18.3103 13.2993C18.3334 13.2034 18.3334 13.1015 18.3334 12.8977V7.10227C18.3334 6.89845 18.3334 6.79654 18.3103 6.70063C18.2899 6.6156 18.2562 6.53431 18.2106 6.45975C18.159 6.37566 18.087 6.30359 17.9428 6.15947L13.8405 2.05718C13.6964 1.91305 13.6244 1.84099 13.5403 1.78946C13.4657 1.74377 13.3844 1.7101 13.2994 1.68968C13.2035 1.66666 13.1016 1.66666 12.8977 1.66666H7.10231C6.89848 1.66666 6.79657 1.66666 6.70066 1.68968C6.61563 1.7101 6.53434 1.74377 6.45978 1.78946C6.37569 1.84099 6.30362 1.91305 6.1595 2.05718L2.05721 6.15947C1.91308 6.30359 1.84102 6.37566 1.78949 6.45975C1.7438 6.53431 1.71013 6.6156 1.68971 6.70063C1.66669 6.79654 1.66669 6.89845 1.66669 7.10227Z" stroke="#414350" stroke-width="1.5" stroke-linecap="round" stroke-linejoin="round"/>
</g>
<defs>
<clipPath id="clip0_29_289">
<rect width="20" height="20" fill="white"/>
</clipPath>
</defs>
</svg>
